<svg xmlns="http://www.w3.org/2000/svg" viewBox="0 0 32 32" width="32" height="32">
  <defs>
    <linearGradient id="leafGradient" x1="0%" y1="0%" x2="100%" y2="100%">
      <stop offset="0%" style="stop-color:#22c55e;stop-opacity:1" />
      <stop offset="100%" style="stop-color:#16a34a;stop-opacity:1" />
    </linearGradient>
  </defs>
  
  <!-- Background circle -->
  <circle cx="16" cy="16" r="15" fill="#f0fdf4" stroke="#22c55e" stroke-width="2"/>
  
  <!-- Leaf shape -->
  <path d="M8 20 C8 15, 12 10, 16 10 C20 10, 24 15, 24 20 C24 25, 20 26, 16 26 C12 26, 8 25, 8 20 Z" fill="url(#leafGradient)"/>
  
  <!-- Leaf vein -->
  <path d="M16 10 L16 25" stroke="#166534" stroke-width="1.5" stroke-linecap="round"/>
  
  <!-- Side veins -->
  <path d="M16 14 C18 16, 20 18, 22 20" stroke="#166534" stroke-width="1" stroke-linecap="round" fill="none"/>
  <path d="M16 14 C14 16, 12 18, 10 20" stroke="#166534" stroke-width="1" stroke-linecap="round" fill="none"/>
  <path d="M16 18 C17.5 19, 19 20, 21 21" stroke="#166534" stroke-width="0.8" stroke-linecap="round" fill="none"/>
  <path d="M16 18 C14.5 19, 13 20, 11 21" stroke="#166534" stroke-width="0.8" stroke-linecap="round" fill="none"/>
</svg>